# xmcd
#
# Track frame offsets:
#	150
#	15741
#	36905
#	53939
#	75819
#	95237
#	113759
#	128231
#	150185
#	167847
#
# Disc length: 2613 seconds
#
# Revision: 0
# Processed by: cddbd v1.5.2PL0 Copyright (c) Steve Scherf et al.
# Submitted via: EasyCDDAExtractor 10.0.4.1
#
DISCID=710a330a
DTITLE=Jason McGuire - Distancias
DYEAR=2005
DGENRE=Pop
TTITLE0=Noche Caliente
TTITLE1=Lagrimas De Sal
TTITLE2=Sangre Tejana
TTITLE3=Distancias
TTITLE4=Euridice
TTITLE5=Aires de Mozambique
TTITLE6=Loisaida
TTITLE7=Rachel Camela
TTITLE8=Pavan
TTITLE9=347-10ㄗ10ㄘ_HDCD
EXTD=
EXTT0=
EXTT1=
EXTT2=
EXTT3=
EXTT4=
EXTT5=
EXTT6=
EXTT7=
EXTT8=
EXTT9=
PLAYORDER=
